<?xml version="1.0" encoding="UTF-8"?>
<!DOCTYPE svg PUBLIC "-//W3C//DTD SVG 1.1//EN" "http://www.w3.org/Graphics/SVG/1.1/DTD/svg11.dtd">
<!-- Creator: CorelDRAW 2020 (64-Bit) -->
<svg xmlns="http://www.w3.org/2000/svg" xml:space="preserve" width="7.5753mm" height="3.4248mm" version="1.1" style="shape-rendering:geometricPrecision; text-rendering:geometricPrecision; image-rendering:optimizeQuality; fill-rule:evenodd; clip-rule:evenodd"
viewBox="0 0 18.8 8.5"
 xmlns:xlink="http://www.w3.org/1999/xlink"
 xmlns:xodm="http://www.corel.com/coreldraw/odm/2003">
 <defs>
  <style type="text/css">
   <![CDATA[
    .str1 {stroke:#1A1A1A;stroke-width:0.32;stroke-miterlimit:22.9256}
    .str0 {stroke:#1A1A1A;stroke-width:0.32;stroke-linejoin:round;stroke-miterlimit:22.9256}
    .str2 {stroke:#1A1A1A;stroke-width:0.32;stroke-linecap:round;stroke-linejoin:round;stroke-miterlimit:22.9256}
    .fil1 {fill:none}
    .fil2 {fill:#1A1A1A}
    .fil0 {fill:white}
    .fil3 {fill:white}
   ]]>
  </style>
 </defs>
 <g id="Capa_x0020_1">
  <metadata id="CorelCorpID_0Corel-Layer"/>
  <g id="_1368035534048">
   <g>
    <path class="fil0" d="M16.57 0.16c0.34,0 0.64,0.31 0.89,0.79 0.5,0.96 0.82,2.62 1,3.96 0.12,0.91 0.18,1.68 0.19,1.98 0.01,0.28 -0.23,0.52 -0.52,0.52l-2.08 0 -0.29 0c-0.17,0.45 -0.61,0.77 -1.12,0.77 -0.51,0 -0.95,-0.32 -1.12,-0.77l-6.46 0c-0.17,0.45 -0.61,0.77 -1.12,0.77 -0.51,0 -0.95,-0.32 -1.12,-0.77l-0.89 0c-0.17,0.45 -0.61,0.77 -1.12,0.77 -0.51,0 -0.95,-0.32 -1.12,-0.77l-1.02 0 -0.14 0c-0.21,0 -0.38,-0.17 -0.38,-0.38l0 -0.14 0 -1.56 0 -4.66c0,-0.29 0.23,-0.52 0.52,-0.52l15.89 0z"/>
    <path class="fil1 str0" d="M18.13 7.41l-2.37 0c0.05,-0.13 0.08,-0.27 0.08,-0.42 0,-0.66 -0.53,-1.19 -1.19,-1.19 -0.66,0 -1.19,0.53 -1.19,1.19 0,0.15 0.03,0.29 0.08,0.42l-6.46 0c0.05,-0.13 0.08,-0.27 0.08,-0.42 0,-0.66 -0.53,-1.19 -1.19,-1.19 -0.66,0 -1.19,0.53 -1.19,1.19 0,0.15 0.03,0.29 0.08,0.42l-0.89 0c0.05,-0.13 0.08,-0.27 0.08,-0.42 0,-0.66 -0.53,-1.19 -1.19,-1.19 -0.66,0 -1.19,0.53 -1.19,1.19 0,0.15 0.03,0.29 0.08,0.42l-1.02 0c-0.28,0 -0.52,-0.23 -0.52,-0.52l0 -6.22c0,-0.29 0.23,-0.52 0.52,-0.52l15.89 0c1.49,0 2.05,5.77 2.08,6.74 0.01,0.28 -0.23,0.52 -0.52,0.52z"/>
    <path class="fil1 str0" d="M16.05 4.96l-15.51 0c-0.21,0 -0.38,0.17 -0.38,0.38l0 1.7c0,0.21 0.17,0.38 0.38,0.38l1.16 0c-0.05,-0.13 -0.08,-0.27 -0.08,-0.42 0,-0.66 0.53,-1.19 1.19,-1.19 0.66,0 1.19,0.53 1.19,1.19 0,0.15 -0.03,0.29 -0.08,0.42l0.89 0c-0.05,-0.13 -0.08,-0.27 -0.08,-0.42 0,-0.66 0.53,-1.19 1.19,-1.19 0.66,0 1.19,0.53 1.19,1.19 0,0.15 -0.03,0.29 -0.08,0.42l6.46 0c-0.05,-0.13 -0.08,-0.27 -0.08,-0.42 0,-0.66 0.53,-1.19 1.19,-1.19 0.66,0 1.19,0.53 1.19,1.19 0,0.15 -0.03,0.29 -0.08,0.42l0.29 0c0.21,0 0.38,-0.17 0.38,-0.38l0 -1.7c0,-0.21 -0.17,-0.38 -0.38,-0.38z"/>
    <path class="fil1 str1" d="M14.37 0.95l-2.13 0c-0.23,0 -0.41,0.2 -0.41,0.44l0 2.11c0,0.24 0.18,0.44 0.41,0.44l2.13 0c0.23,0 0.41,-0.2 0.41,-0.44l0 -2.11c0,-0.24 -0.18,-0.44 -0.41,-0.44z"/>
    <path class="fil1 str1" d="M10.45 0.95l-2.13 0c-0.23,0 -0.41,0.2 -0.41,0.44l0 2.11c0,0.24 0.18,0.44 0.41,0.44l2.13 0c0.23,0 0.41,-0.2 0.41,-0.44l0 -2.11c0,-0.24 -0.18,-0.44 -0.41,-0.44z"/>
    <path class="fil1 str1" d="M6.53 0.95l-2.13 0c-0.23,0 -0.41,0.2 -0.41,0.44l0 2.11c0,0.24 0.18,0.44 0.41,0.44l2.13 0c0.23,0 0.41,-0.2 0.41,-0.44l0 -2.11c0,-0.24 -0.18,-0.44 -0.41,-0.44z"/>
    <path class="fil1 str1" d="M2.72 0.95l-1.43 0c-0.16,0 -0.3,0.14 -0.3,0.32l0 2.35c0,0.18 0.13,0.32 0.3,0.32l1.43 0c0.16,0 0.3,-0.14 0.3,-0.32l0 -2.35c0,-0.18 -0.13,-0.32 -0.3,-0.32z"/>
    <path class="fil1 str1" d="M17.46 0.95l-1.31 0c-0.24,0 -0.44,0.2 -0.44,0.44l0 2.11c0,0.24 0.22,0.35 0.44,0.44l2.3 0.97 0.01 0c-0.18,-1.34 -0.5,-3 -1,-3.96z"/>
    <circle class="fil2 str0" cx="14.64" cy="6.99" r="1.19"/>
    <circle class="fil2 str0" cx="2.82" cy="6.99" r="1.19"/>
    <circle class="fil2 str0" cx="5.94" cy="6.99" r="1.19"/>
    <circle class="fil3" cx="14.64" cy="6.99" r="0.52"/>
    <circle class="fil3" cx="2.82" cy="6.99" r="0.52"/>
    <circle class="fil3" cx="5.94" cy="6.99" r="0.52"/>
   </g>
   <line class="fil1 str2" x1="0.33" y1="8.34" x2="18.47" y2= "8.34" />
  </g>
 </g>
</svg>
