<?xml version="1.0" encoding="UTF-8"?>
<!DOCTYPE svg PUBLIC "-//W3C//DTD SVG 1.1//EN" "http://www.w3.org/Graphics/SVG/1.1/DTD/svg11.dtd">
<!-- Creator: CorelDRAW 2020 (64-Bit) -->
<svg xmlns="http://www.w3.org/2000/svg" xml:space="preserve" width="6.2704mm" height="2.7057mm" version="1.1" style="shape-rendering:geometricPrecision; text-rendering:geometricPrecision; image-rendering:optimizeQuality; fill-rule:evenodd; clip-rule:evenodd"
viewBox="0 0 15.91 6.87"
 xmlns:xlink="http://www.w3.org/1999/xlink"
 xmlns:xodm="http://www.corel.com/coreldraw/odm/2003">
 <defs>
  <style type="text/css">
   <![CDATA[
    .str1 {stroke:#1A1A1A;stroke-width:0.32;stroke-miterlimit:22.9256}
    .str0 {stroke:#1A1A1A;stroke-width:0.32;stroke-linejoin:round;stroke-miterlimit:22.9256}
    .str2 {stroke:#1A1A1A;stroke-width:0.32;stroke-linecap:round;stroke-linejoin:round;stroke-miterlimit:22.9256}
    .fil1 {fill:none}
    .fil2 {fill:#1A1A1A}
    .fil0 {fill:white}
    .fil3 {fill:white}
   ]]>
  </style>
 </defs>
 <g id="Capa_x0020_1">
  <metadata id="CorelCorpID_0Corel-Layer"/>
  <g id="_1367471625600">
   <g>
    <path class="fil0" d="M15.75 2.88l0 0.76 0 1.67c0,0.08 -0.07,0.15 -0.15,0.15l-0.87 0 -0.75 0c-0.07,0.61 -0.59,1.08 -1.21,1.08 -0.63,0 -1.14,-0.47 -1.21,-1.08l-3.79 0c-0.08,0 -0.15,-0.07 -0.15,-0.15 0,0.08 -0.07,0.15 -0.15,0.15l-3.13 0c-0.07,0.61 -0.59,1.08 -1.21,1.08 -0.63,0 -1.14,-0.47 -1.21,-1.08l-1.63 0c-0.07,0 -0.13,-0.07 -0.13,-0.15l0 -1.11 0 -1 0 -0.32c0,-0.08 0.06,-0.13 0.13,-0.15l3.26 -0.69 1.38 -1.89 2.83 0 2.24 0c0.71,0.65 1.41,1.29 2.12,1.94l0 0.18c0,-0.08 0.07,-0.16 0.15,-0.15l2.53 0.46 0.79 0.14c0.08,0.01 0.15,0.07 0.15,0.15z"/>
    <path class="fil1 str0" d="M10.02 0.16l-2.24 0c-0.08,0 -0.15,0.07 -0.15,0.15l0 4.05c0,0.08 0.07,0.15 0.15,0.15l4.09 0c0.08,-0.09 0.17,-0.16 0.27,-0.23l0 -2.18c-0.71,-0.65 -1.41,-1.29 -2.12,-1.94z"/>
    <path class="fil1 str0" d="M12.13 4.29l0 -2c0,-0.08 0.07,-0.16 0.15,-0.15l3.32 0.6c0.08,0.01 0.15,0.07 0.15,0.15l0 2.43c0,0.08 -0.07,0.15 -0.15,0.15l-0.87 0 -0.75 0c0.01,-0.05 0.01,-0.09 0.01,-0.14 0,-0.67 -0.55,-1.22 -1.22,-1.22 -0.23,0 -0.45,0.07 -0.64,0.18z"/>
    <path class="fil1 str0" d="M15.75 3.65l-0.78 0c-0.09,0 -0.16,-0.07 -0.16,-0.16l0 -0.9 0.79 0.14c0.08,0.01 0.15,0.07 0.15,0.15l0 0.76z"/>
    <path class="fil1 str0" d="M7.62 4.36c0,0.08 -0.07,0.15 -0.15,0.15l-3.43 0m-0.49 -0.33l0 -2.13 1.38 -1.89 3.52 0"/>
    <path class="fil1 str0" d="M3.55 4.18l0 -2.13 -3.26 0.69c-0.07,0.01 -0.13,0.07 -0.13,0.15l0 2.43c0,0.08 0.06,0.15 0.13,0.15l1.63 0"/>
    <path class="fil1 str1" d="M0.16 3.21l0.47 0c0.07,0 0.12,0.04 0.12,0.09l0 0.82c0,0.05 -0.05,0.09 -0.12,0.09l-0.47 0 0 -1z"/>
    <path class="fil1 str0" d="M9.8 0.85l-1.41 0c-0.05,0 -0.1,0.05 -0.1,0.1l0 1.42 0.1 0.1 2.76 0c0.03,-0.1 0.07,-0.2 0.1,-0.3l-1.45 -1.33z"/>
    <path class="fil1 str0" d="M5.42 0.85l1.41 0c0.05,0 0.1,0.05 0.1,0.1l0 1.42 -0.1 0.1 -2.29 0c-0.03,-0.1 -0.07,-0.2 -0.1,-0.3l0.98 -1.33z"/>
    <circle class="fil2 str0" cx="3.14" cy="5.32" r="1.22"/>
    <circle class="fil2 str0" cx="12.77" cy="5.32" r="1.22"/>
    <path class="fil1 str0" d="M11.86 4.51l-4.09 0c-0.08,0 -0.15,0.07 -0.15,0.15l0 0.66c0,0.08 0.07,0.15 0.15,0.15l3.79 0c-0.01,-0.05 -0.01,-0.09 -0.01,-0.14 0,-0.31 0.12,-0.6 0.31,-0.81z"/>
    <path class="fil1 str0" d="M4.05 4.51l3.43 0c0.08,0 0.15,0.07 0.15,0.15l0 0.66c0,0.08 -0.07,0.15 -0.15,0.15l-3.13 0c0.01,-0.05 0.01,-0.09 0.01,-0.14 0,-0.31 -0.12,-0.6 -0.31,-0.81z"/>
    <polygon class="fil3" points="4.35,5.46 6.79,5.46 "/>
    <circle class="fil3" cx="3.14" cy="5.32" r="0.54"/>
    <circle class="fil3" cx="12.77" cy="5.32" r="0.54"/>
   </g>
   <line class="fil1 str2" x1="0.16" y1="6.7" x2="15.75" y2= "6.7" />
  </g>
 </g>
</svg>
