<?xml version="1.0" encoding="UTF-8"?>
<!DOCTYPE svg PUBLIC "-//W3C//DTD SVG 1.1//EN" "http://www.w3.org/Graphics/SVG/1.1/DTD/svg11.dtd">
<!-- Creator: CorelDRAW 2020 (64-Bit) -->
<svg xmlns="http://www.w3.org/2000/svg" xml:space="preserve" width="5.7548mm" height="2.6424mm" version="1.1" style="shape-rendering:geometricPrecision; text-rendering:geometricPrecision; image-rendering:optimizeQuality; fill-rule:evenodd; clip-rule:evenodd"
viewBox="0 0 12.28 5.64"
 xmlns:xlink="http://www.w3.org/1999/xlink"
 xmlns:xodm="http://www.corel.com/coreldraw/odm/2003">
 <defs>
  <style type="text/css">
   <![CDATA[
    .str1 {stroke:#1A1A1A;stroke-width:0.27;stroke-miterlimit:22.9256}
    .str0 {stroke:#1A1A1A;stroke-width:0.27;stroke-linejoin:round;stroke-miterlimit:22.9256}
    .str2 {stroke:#1A1A1A;stroke-width:0.27;stroke-linecap:round;stroke-linejoin:round;stroke-miterlimit:22.9256}
    .fil1 {fill:none}
    .fil3 {fill:#1A1A1A}
    .fil0 {fill:#B6E802}
    .fil2 {fill:white}
    .fil4 {fill:white}
   ]]>
  </style>
 </defs>
 <g id="Capa_x0020_1">
  <metadata id="CorelCorpID_0Corel-Layer"/>
  <g id="_1367963427968">
   <g>
    <path class="fil0" d="M7.32 0.14c0.59,0.54 1.19,1.09 1.78,1.63l0 0.16c0,-0.07 0.06,-0.14 0.12,-0.12l2.13 0.38 0.66 0.12c0.07,0.01 0.12,0.06 0.12,0.12l0 0.64 0 1.4c0,0.07 -0.06,0.12 -0.12,0.12l-0.73 0c-0.06,0.51 -0.49,0.91 -1.02,0.91 -0.53,0 -0.96,-0.4 -1.02,-0.91l-0.02 0c-0.07,0 -0.12,-0.06 -0.12,-0.12 0,0.07 -0.06,0.12 -0.12,0.12l-3.55 0c-0.07,0 -0.12,-0.06 -0.12,-0.12 0,0.07 -0.06,0.12 -0.12,0.12l-1.21 0c-0.06,0.51 -0.49,0.91 -1.02,0.91 -0.53,0 -0.96,-0.4 -1.02,-0.91l-1.68 0c-0.07,0 -0.12,-0.06 -0.12,-0.12l0 -0.55c0,-0.07 0.06,-0.12 0.12,-0.12l0.24 0c-0.11,0 -0.19,-0.09 -0.19,-0.19l0 -1.55c0,-0.11 0.09,-0.19 0.19,-0.19l4.62 0c0.11,0 0.19,0.09 0.19,0.19l0 -1.78c0,-0.07 0.06,-0.13 0.12,-0.13l1.89 0z"/>
    <path class="fil1 str0" d="M0.5 1.85l4.62 0c0.11,0 0.19,0.09 0.19,0.19l0 1.55c0,0.11 -0.09,0.19 -0.19,0.19l-1.4 0c-0.19,-0.21 -0.46,-0.34 -0.76,-0.34 -0.3,0 -0.58,0.13 -0.76,0.34l-1.69 0c-0.11,0 -0.19,-0.09 -0.19,-0.19l0 -1.55c0,-0.11 0.09,-0.19 0.19,-0.19z"/>
    <path class="fil1 str0" d="M1.94 4.59l-1.68 0c-0.07,0 -0.12,-0.06 -0.12,-0.12l0 -0.55c0,-0.07 0.06,-0.12 0.12,-0.12l1.93 0c-0.16,0.18 -0.26,0.42 -0.26,0.68 0,0.04 0,0.08 0.01,0.12zm1.78 -0.8l1.47 0c0.07,0 0.12,0.06 0.12,0.12l0 0.55c0,0.07 -0.06,0.12 -0.12,0.12l-1.21 0c0,-0.04 0.01,-0.08 0.01,-0.12 0,-0.26 -0.1,-0.5 -0.26,-0.68z"/>
    <path class="fil0 str0" d="M8.98 3.79l-3.55 0c-0.07,0 -0.12,0.06 -0.12,0.12l0 0.55c0,0.07 0.06,0.12 0.12,0.12l3.55 0c0.07,0 0.12,-0.06 0.12,-0.12l0 -0.55c0,-0.07 -0.06,-0.12 -0.12,-0.12z"/>
    <path class="fil1 str0" d="M7.32 0.14l-1.89 0c-0.07,0 -0.12,0.06 -0.12,0.13l0 3.41c0,0.07 0.06,0.12 0.12,0.12l3.55 0c0.07,0 0.12,-0.06 0.12,-0.12l0 -1.9c-0.59,-0.54 -1.19,-1.09 -1.78,-1.63z"/>
    <path class="fil2 str0" d="M7.18 0.72l-1.19 0c-0.05,0 -0.08,0.04 -0.08,0.09l0 1.2 0.08 0.08 2.32 0c0.03,-0.08 0.06,-0.17 0.08,-0.25l-1.22 -1.11z"/>
    <path class="fil1 str0" d="M9.23 1.8l2.79 0.5c0.07,0.01 0.12,0.06 0.12,0.12l0 2.05c0,0.07 -0.06,0.12 -0.12,0.12l-0.73 0c0,-0.04 0.01,-0.08 0.01,-0.12 0,-0.57 -0.46,-1.03 -1.03,-1.03 -0.57,0 -1.03,0.46 -1.03,1.03 0,0.04 0,0.08 0.01,0.12l-0.02 0c-0.07,0 -0.12,-0.06 -0.12,-0.12l0 -2.55c0,-0.07 0.06,-0.14 0.12,-0.12z"/>
    <path class="fil2 str0" d="M12.14 3.07l-0.66 0c-0.07,0 -0.13,-0.06 -0.13,-0.13l0 -0.75 0.66 0.12c0.07,0.01 0.12,0.06 0.12,0.12l0 0.64z"/>
    <path class="fil3 str0" d="M10.27 3.45c0.57,0 1.03,0.46 1.03,1.03 0,0.57 -0.46,1.03 -1.03,1.03 -0.57,0 -1.03,-0.46 -1.03,-1.03 0,-0.57 0.46,-1.03 1.03,-1.03z"/>
    <path class="fil4" d="M10.27 4.03c0.25,0 0.45,0.2 0.45,0.45 0,0.25 -0.2,0.45 -0.45,0.45 -0.25,0 -0.45,-0.2 -0.45,-0.45 0,-0.25 0.2,-0.45 0.45,-0.45z"/>
    <circle class="fil3 str0" cx="2.96" cy="4.48" r="1.03"/>
    <circle class="fil4" cx="2.96" cy="4.48" r="0.45"/>
    <path class="fil2 str1" d="M0.31 2.44l0.4 0c0.06,0 0.1,0.03 0.1,0.08l0 0.69c0,0.04 -0.05,0.08 -0.1,0.08l-0.4 0 0 -0.84z"/>
   </g>
   <line class="fil1 str2" x1="0.14" y1="5.5" x2="12.14" y2= "5.5" />
  </g>
 </g>
</svg>
