<?xml version="1.0" encoding="UTF-8"?>
<!DOCTYPE svg PUBLIC "-//W3C//DTD SVG 1.1//EN" "http://www.w3.org/Graphics/SVG/1.1/DTD/svg11.dtd">
<!-- Creator: CorelDRAW 2020 (64-Bit) -->
<svg xmlns="http://www.w3.org/2000/svg" xml:space="preserve" width="5.5714mm" height="3.5075mm" version="1.1" style="shape-rendering:geometricPrecision; text-rendering:geometricPrecision; image-rendering:optimizeQuality; fill-rule:evenodd; clip-rule:evenodd"
viewBox="0 0 10.78 6.79"
 xmlns:xlink="http://www.w3.org/1999/xlink"
 xmlns:xodm="http://www.corel.com/coreldraw/odm/2003">
 <defs>
  <style type="text/css">
   <![CDATA[
    .str0 {stroke:#1A1A1A;stroke-width:0.25;stroke-linejoin:round;stroke-miterlimit:22.9256}
    .str1 {stroke:#1A1A1A;stroke-width:0.25;stroke-linecap:round;stroke-linejoin:round;stroke-miterlimit:22.9256}
    .fil3 {fill:none}
    .fil0 {fill:#1A1A1A}
    .fil2 {fill:#1A1A1A}
    .fil1 {fill:white}
    .fil4 {fill:white}
   ]]>
  </style>
 </defs>
 <g id="Capa_x0020_1">
  <metadata id="CorelCorpID_0Corel-Layer"/>
  <g id="_1368035289536">
   <g>
    <path class="fil0" d="M0.39 4.65l0.42 0c0.01,0 0.02,0.01 0.02,0.02l0 0.23c0,0.01 -0.01,0.02 -0.02,0.02l-0.42 0 0 0.43c0,0.02 -0.01,0.04 -0.02,0.04l-0.23 0c-0.01,0 -0.02,-0.02 -0.02,-0.04l0 -0.83c0,-0.02 0.01,-0.04 0.02,-0.04l0.23 0c0.01,0 0.02,0.02 0.02,0.04l0 0.14z"/>
    <path class="fil1" d="M9.13 1.08c0.61,0 1.13,1.36 1.37,2.55 0.08,0.39 0.13,0.77 0.15,1.07 0.02,0.4 -0.02,0.66 -0.15,0.66l-1.21 0c0.02,0.08 0.04,0.17 0.04,0.26 0,0.51 -0.42,0.93 -0.93,0.93 -0.51,0 -0.93,-0.42 -0.93,-0.93 0,-0.09 0.01,-0.18 0.04,-0.26l-0.16 0c-0.08,0 -0.14,-0.14 -0.14,-0.31l0 0.12c0,0.1 -0.08,0.18 -0.18,0.18l-3.39 0c0.02,0.08 0.04,0.17 0.04,0.26 0,0.51 -0.42,0.93 -0.93,0.93 -0.51,0 -0.93,-0.42 -0.93,-0.93 0,-0.09 0.01,-0.18 0.04,-0.26l-0.82 0c-0.1,0 -0.18,-0.08 -0.18,-0.18l0 -0.82c0,-0.1 0.08,-0.18 0.18,-0.18l-0.39 0c-0.16,0 -0.29,-0.13 -0.29,-0.29l0 -3.46c0,-0.16 0.13,-0.29 0.29,-0.29l6.28 0c0.16,0 0.29,0.13 0.29,0.29l0 0.97c0,-0.17 0.07,-0.31 0.14,-0.31l1.78 0z"/>
    <circle class="fil2 str0" cx="2.73" cy="5.61" r="0.93"/>
    <circle class="fil2 str0" cx="8.4" cy="5.61" r="0.93"/>
    <path class="fil3 str0" d="M7.02 4.16l-6 0c-0.1,0 -0.18,0.08 -0.18,0.18l0 0.82c0,0.1 0.08,0.18 0.18,0.18l0.82 0c0.11,-0.39 0.47,-0.67 0.89,-0.67 0.42,0 0.78,0.28 0.89,0.67l3.39 0c0.1,0 0.18,-0.08 0.18,-0.18l0 -0.82c0,-0.1 -0.08,-0.18 -0.18,-0.18z"/>
    <path class="fil3 str0" d="M6.92 4.16l-6.28 0c-0.16,0 -0.29,-0.13 -0.29,-0.29l0 -3.46c0,-0.16 0.13,-0.29 0.29,-0.29l6.28 0c0.16,0 0.29,0.13 0.29,0.29l0 3.46c0,0.16 -0.13,0.29 -0.29,0.29z"/>
    <path class="fil0 str0" d="M0.8 4.91l-0.48 0c-0.01,0 -0.02,-0.01 -0.02,-0.02l0 -0.23c0,-0.01 0.01,-0.02 0.02,-0.02l0.48 0c0.01,0 0.02,0.01 0.02,0.02l0 0.23c0,0.01 -0.01,0.02 -0.02,0.02z"/>
    <path class="fil0 str0" d="M0.12 5.34l0 -0.83c0,-0.02 0.01,-0.04 0.02,-0.04l0.23 0c0.01,0 0.02,0.02 0.02,0.04l0 0.83c0,0.02 -0.01,0.04 -0.02,0.04l-0.23 0c-0.01,0 -0.02,-0.02 -0.02,-0.04z"/>
    <path class="fil3 str0" d="M7.35 5.35l0.16 0c0.11,-0.39 0.47,-0.67 0.89,-0.67 0.42,0 0.78,0.28 0.89,0.67l1.21 0c0.5,0 -0.29,-4.28 -1.38,-4.28l-1.78 0c-0.08,0 -0.14,0.14 -0.14,0.31l0 3.67c0,0.17 0.07,0.31 0.14,0.31z"/>
    <path class="fil3 str0" d="M9.7 3.2l-0.43 0 -0.44 -0.44 -0.75 0c0,0 -0.26,0.02 -0.26,-0.26 0,-0.28 0,-0.83 0,-0.83l1.06 0c0,0 0.46,0.32 0.6,0.56 0.14,0.23 0.23,0.98 0.23,0.98z"/>
    <path class="fil3 str0" d="M9.84 3.62l0.66 0c0.08,0.39 0.13,0.77 0.15,1.07l-0.81 -0.29 0 -0.78z"/>
    <circle class="fil4" cx="2.73" cy="5.61" r="0.41"/>
    <circle class="fil4" cx="8.4" cy="5.61" r="0.41"/>
   </g>
   <line class="fil3 str1" x1="0.3" y1="6.66" x2="10.65" y2= "6.66" />
  </g>
 </g>
</svg>
