<?xml version="1.0" encoding="UTF-8"?>
<!DOCTYPE svg PUBLIC "-//W3C//DTD SVG 1.1//EN" "http://www.w3.org/Graphics/SVG/1.1/DTD/svg11.dtd">
<!-- Creator: CorelDRAW 2020 (64-Bit) -->
<svg xmlns="http://www.w3.org/2000/svg" xml:space="preserve" width="7.3418mm" height="3.6908mm" version="1.1" style="shape-rendering:geometricPrecision; text-rendering:geometricPrecision; image-rendering:optimizeQuality; fill-rule:evenodd; clip-rule:evenodd"
viewBox="0 0 16.64 8.37"
 xmlns:xlink="http://www.w3.org/1999/xlink"
 xmlns:xodm="http://www.corel.com/coreldraw/odm/2003">
 <defs>
  <style type="text/css">
   <![CDATA[
    .str1 {stroke:#1A1A1A;stroke-width:0.29;stroke-linejoin:round;stroke-miterlimit:22.9256}
    .str0 {stroke:#1A1A1A;stroke-width:0.29;stroke-linecap:round;stroke-linejoin:round;stroke-miterlimit:22.9256}
    .fil2 {fill:none}
    .fil3 {fill:#1A1A1A}
    .fil0 {fill:#B6E802}
    .fil1 {fill:white}
    .fil4 {fill:white}
   ]]>
  </style>
 </defs>
 <g id="Capa_x0020_1">
  <metadata id="CorelCorpID_0Corel-Layer"/>
  <g id="_1368036911632">
   <g>
    <path class="fil0 str0" d="M4.87 6.58l0 -2.82c0,0 0.51,-1.97 0.65,-2.08 0.14,-0.11 3.1,-0.17 3.1,-0.17l0.53 2.02c0,0 1.31,0.12 2.31,0.44 1,0.32 1.26,0.47 1.26,0.47l0 0.49c-0.25,-0.19 -0.41,-0.23 -0.41,-0.23 0,0 -1.57,-0.5 -2.02,-0.63 -0.45,-0.14 -0.59,-0.03 -0.63,0.12 -0.04,0.15 0.38,0.52 1.46,0.96 0.28,0.11 0.63,0.32 0.98,0.57 -0.59,0.08 -1.04,0.56 -1.08,1.16l-0 0 -2.89 0c0.01,-0.07 0.01,-0.14 0.01,-0.21 0,-0.83 -0.67,-1.51 -1.51,-1.51 -0.83,0 -1.51,0.67 -1.51,1.51l0 0.04 -0.26 -0.13z"/>
    <path class="fil1 str0" d="M4.9 3.65c0.11,-0.42 0.5,-1.87 0.62,-1.96 0.06,-0.04 0.6,-0.08 1.22,-0.11 0.31,0 0.83,-0.02 1.26,-0.05 0.36,-0.01 0.62,-0.02 0.62,-0.02l0.53 2.02 0.1 0.01 -0.22 0.22 -0.26 0 -0.67 0 -3.2 0 0 -0.12z"/>
    <path class="fil0 str0" d="M4.87 4.31l0 -1.47c0,0 0.01,-0.39 -0.44,-0.55 -0.45,-0.16 -1.59,-1.25 -1.59,-1.25 0,0 -0.29,-0.39 -0.53,-0.21 -0.25,0.18 -0.09,0.52 0.13,0.77 0.22,0.25 0.73,1.25 0.73,1.25l0 2.85c0,0 0.03,0.91 0.75,0.91 0.72,0 0.96,0 0.96,0l0 -2.3z"/>
    <path class="fil0 str0" d="M2.13 0.17l-1.8 3.73c0,0 -0.32,0.47 -0.13,0.68 0.19,0.2 0.18,0.27 0.18,0.27 0,0 0.08,1.17 1.07,1.17 1,0 1.38,-0.65 1.46,-0.79 0.08,-0.14 0.24,-0.4 0.24,-0.54 0,-0.15 -0.25,-0.34 -0.5,-0.15 -0.24,0.2 -0.23,0.15 -0.23,0.15l-1.42 0c0,0 -0.28,-0.01 -0.01,-0.48 0.27,-0.47 1.39,-2.67 1.39,-2.67 0,0 0.36,-0.71 0.26,-1.12 -0.1,-0.41 -0.53,-0.26 -0.53,-0.26z"/>
    <path class="fil0 str0" d="M6.89 1.57l-1.83 0c0,0 -0.36,-0.39 0.4,-0.59 0.76,-0.2 3.25,-0.12 3.25,-0.12 0,0 0.41,0.04 0.41,0.41 0,0.37 -2.23,0.3 -2.23,0.3z"/>
    <path class="fil0 str0" d="M14.2 7.39c-0.09,-0.08 -0.35,-0.31 -0.69,-0.59 -0.08,-0.61 -0.61,-1.08 -1.24,-1.08 -0.06,0 -0.11,0 -0.17,0.01 -0.36,-0.24 -0.7,-0.45 -0.98,-0.57 -1.08,-0.44 -1.51,-0.81 -1.46,-0.96 0.04,-0.15 0.18,-0.26 0.63,-0.12 0.45,0.14 2.02,0.63 2.02,0.63 0,0 0.38,0.08 0.86,0.68 0.27,0.34 0.64,0.78 0.91,1.1 0,0.3 0.03,0.63 0.13,0.9z"/>
    <path class="fil0 str0" d="M14.46 5.34l-0.34 0.34c0,0 -0.34,2.28 0.75,2.28 1.08,0 1.06,0.05 1.08,0.02l0.54 -0.73c0,0 0.08,-0.09 -0.44,-0.3 -0.52,-0.21 -0.82,-0.47 -0.82,-0.47l-0.21 -0.78c0,0 -0.18,-0.4 -0.38,-0.4 -0.2,0 -0.18,0.03 -0.18,0.03z"/>
    <polyline class="fil2 str0" points="4.87,4.57 8,4.57 8.6,5.17 "/>
    <polyline class="fil2 str0" points="4.87,3.76 9.08,3.76 9.08,3.31 "/>
    <line class="fil2 str0" x1="7.06" y1="1.56" x2="7.23" y2= "3.76" />
    <circle class="fil3 str1" cx="6.64" cy="6.68" r="1.51"/>
    <circle class="fil4" cx="6.64" cy="6.68" r="0.66"/>
    <circle class="fil3 str1" cx="12.27" cy="6.97" r="1.25"/>
    <circle class="fil4" cx="12.27" cy="6.97" r="0.55"/>
   </g>
   <line class="fil2 str0" x1="0.21" y1="8.22" x2="16.49" y2= "8.22" />
  </g>
 </g>
</svg>
